<?xml version="1.0" encoding="UTF-8" standalone="no"?>
<svg width="114px" height="112px" viewBox="0 0 114 112" version="1.1" xmlns="http://www.w3.org/2000/svg" xmlns:xlink="http://www.w3.org/1999/xlink" xmlns:sketch="http://www.bohemiancoding.com/sketch/ns">
    <!-- Generator: Sketch 3.4.3 (16044) - http://www.bohemiancoding.com/sketch -->
    <title>Untitled</title>
    <desc>Created with Sketch.</desc>
    <defs>
        <path id="path-1" d="M0,0.976 L52.778,0.976 L52.778,111 L0,111"></path>
        <path id="path-3" d="M0,0.976 L52.778,0.976 L52.778,111 L0,111"></path>
    </defs>
    <g id="Page-1" stroke="none" stroke-width="1" fill="none" fill-rule="evenodd" sketch:type="MSPage">
        <g id="Icon" sketch:type="MSLayerGroup" transform="translate(18.178827, 21.551037)"></g>
        <g id="Page-1-+-Page-1" sketch:type="MSLayerGroup">
            <g id="Page-1" transform="translate(0.178827, 0.551037)">
                <mask id="mask-2" sketch:name="Clip 2" fill="white">
                    <use xlink:href="#path-1"></use>
                </mask>
                <g id="Clip-2"></g>
                <path d="M46.7881,7.832 C29.2681,10.449 9.4591,25.827 6.5841,50.206 C4.9261,64.269 8.7971,76.819 17.9301,87.604 C26.9921,98.308 38.7631,103.96 52.7781,105.179 L52.7781,111 C35.2151,109.584 20.8601,102.304 10.8051,87.966 C-2.5039,68.986 -3.5589,48.73 7.8681,28.603 C17.5801,11.496 33.0801,2.786 52.7401,0.976 L52.7401,19.415 C30.8381,22.043 18.4471,39.942 18.9651,56.944 C19.5671,76.709 34.9981,89.061 47.0181,91.281 C47.0181,89.188 47.1461,87.138 46.9371,85.122 C46.8771,84.54 45.9331,83.851 45.2471,83.563 C34.9431,79.255 28.6091,71.705 26.5431,60.699 C23.5961,45.001 35.7411,28.564 51.4481,26.927 C51.8291,26.888 52.2181,26.922 52.7611,26.922 L52.7611,32.37 C39.0611,36.424 31.8391,44.753 32.0041,56.212 C32.1701,67.681 39.4611,75.962 52.7441,79.628 L52.7441,98.303 C42.6501,97.493 33.9281,93.86 26.7601,87.034 C14.7681,75.613 10.3661,61.544 14.4931,45.536 C18.5881,29.647 29.1931,19.56 44.9841,15.061 C46.6021,14.6 47.2461,13.957 47.0531,12.292 C46.9071,11.029 47.0061,9.737 46.9831,8.458 C46.9801,8.309 46.8931,8.16 46.7881,7.832" id="Fill-1" fill="#208ECC" sketch:type="MSShapeGroup" mask="url(#mask-2)"></path>
            </g>
            <g id="Page-1" transform="translate(86.678827, 56.051037) scale(-1, -1) translate(-86.678827, -56.051037) translate(60.178827, 0.551037)">
                <mask id="mask-4" sketch:name="Clip 2" fill="white">
                    <use xlink:href="#path-3"></use>
                </mask>
                <g id="Clip-2"></g>
                <path d="M46.7881,7.832 C29.2681,10.449 9.4591,25.827 6.5841,50.206 C4.9261,64.269 8.7971,76.819 17.9301,87.604 C26.9921,98.308 38.7631,103.96 52.7781,105.179 L52.7781,111 C35.2151,109.584 20.8601,102.304 10.8051,87.966 C-2.5039,68.986 -3.5589,48.73 7.8681,28.603 C17.5801,11.496 33.0801,2.786 52.7401,0.976 L52.7401,19.415 C30.8381,22.043 18.4471,39.942 18.9651,56.944 C19.5671,76.709 34.9981,89.061 47.0181,91.281 C47.0181,89.188 47.1461,87.138 46.9371,85.122 C46.8771,84.54 45.9331,83.851 45.2471,83.563 C34.9431,79.255 28.6091,71.705 26.5431,60.699 C23.5961,45.001 35.7411,28.564 51.4481,26.927 C51.8291,26.888 52.2181,26.922 52.7611,26.922 L52.7611,32.37 C39.0611,36.424 31.8391,44.753 32.0041,56.212 C32.1701,67.681 39.4611,75.962 52.7441,79.628 L52.7441,98.303 C42.6501,97.493 33.9281,93.86 26.7601,87.034 C14.7681,75.613 10.3661,61.544 14.4931,45.536 C18.5881,29.647 29.1931,19.56 44.9841,15.061 C46.6021,14.6 47.2461,13.957 47.0531,12.292 C46.9071,11.029 47.0061,9.737 46.9831,8.458 C46.9801,8.309 46.8931,8.16 46.7881,7.832" id="Fill-1" fill="#208ECC" sketch:type="MSShapeGroup" mask="url(#mask-4)"></path>
            </g>
        </g>
        <path d="M88.6111221,33.3750607 C92.1102004,31.2797663 94.7907872,27.9594667 96.0564438,24.0077594 C92.7879419,25.9483163 89.1638497,27.3577826 85.3015318,28.1168269 C82.2144312,24.8262509 77.8124989,22.7718264 72.9419831,22.7718264 C63.5936961,22.7718264 56.0124328,30.3502485 56.0124328,39.7039994 C56.0124328,41.0293217 56.1614878,42.3222978 56.4486701,43.5636947 C42.3760811,42.8564481 29.8998237,36.1155318 21.5488068,25.872696 C20.0906026,28.3742856 19.255938,31.2828261 19.255938,34.3860998 C19.255938,40.2597868 22.2455627,45.4421817 26.7882449,48.4779217 C24.0128048,48.3913736 21.4023744,47.6294881 19.1175922,46.3609903 L19.1175922,46.5749564 C19.1175922,54.7795409 24.9532504,61.6207743 32.699742,63.176673 C31.2767252,63.5667951 29.7833334,63.7702706 28.2383625,63.7702706 C27.1460207,63.7702706 26.0862436,63.6671122 25.0509449,63.4721605 C27.2056864,70.1969037 33.4587862,75.0918978 40.8662977,75.2302436 C35.0712909,79.7729258 27.7693418,82.4806135 19.8386077,82.4806135 C18.472634,82.4806135 17.1226149,82.3993107 15.7972926,82.2393279 C23.2917893,87.0449327 32.1902884,89.8503148 41.75276,89.8503148 C72.8960864,89.8503148 89.9283579,64.0493663 89.9283579,41.6744984 C89.9283579,40.9399324 89.9121848,40.2108303 89.8767787,39.4843508 C93.1942371,37.0854824 96.0675901,34.1041628 98.3364178,30.7078058 C95.3004593,32.0549837 92.0396069,32.9657057 88.6111221,33.3750607 Z" id="Shape" stroke="#000000" stroke-width="3.5" fill-opacity="0.7" fill="#FFFFFF" sketch:type="MSShapeGroup"></path>
    </g>
</svg>